<?xml version="1.0" encoding="UTF-8" standalone="no"?>
<!-- Created with Vectornator Pro for iOS (http://vectornator.io/) -->

<svg
   xmlns:vectornator="http://vectornator.io"
   xmlns:dc="http://purl.org/dc/elements/1.1/"
   xmlns:cc="http://creativecommons.org/ns#"
   xmlns:rdf="http://www.w3.org/1999/02/22-rdf-syntax-ns#"
   xmlns:svg="http://www.w3.org/2000/svg"
   xmlns="http://www.w3.org/2000/svg"
   xmlns:sodipodi="http://sodipodi.sourceforge.net/DTD/sodipodi-0.dtd"
   xmlns:inkscape="http://www.inkscape.org/namespaces/inkscape"
   style="fill-rule:evenodd;clip-rule:evenodd;stroke-linecap:round;stroke-linejoin:round;"
   xml:space="preserve"
   version="1.1"
   viewBox="0 0 1683.99 1190.7"
   id="svg3875"
   sodipodi:docname="logo.svg"
   inkscape:version="0.92.3 (2405546, 2018-03-11)"><sodipodi:namedview
   pagecolor="#ffffff"
   bordercolor="#666666"
   borderopacity="1"
   objecttolerance="10"
   gridtolerance="10"
   guidetolerance="10"
   inkscape:pageopacity="0"
   inkscape:pageshadow="2"
   inkscape:window-width="1920"
   inkscape:window-height="986"
   id="namedview3877"
   showgrid="false"
   inkscape:zoom="0.64079956"
   inkscape:cx="841.995"
   inkscape:cy="566.2217"
   inkscape:window-x="-11"
   inkscape:window-y="-11"
   inkscape:window-maximized="1"
   inkscape:current-layer="Layer 1" />
<metadata
   id="metadata3796">
<vectornator:setting
   key="DisplayWhiteBackground"
   value="0" />
<vectornator:setting
   key="RulersVisible"
   value="1" />
<vectornator:setting
   key="SnapToEdges"
   value="0" />
<vectornator:setting
   key="Units"
   value="Millimeters" />
<vectornator:setting
   key="DynamicGuides"
   value="0" />
<vectornator:setting
   key="SnapToPoints"
   value="0" />
<vectornator:setting
   key="CMYKEnabledKey"
   value="0" />
<vectornator:setting
   key="SnapToGrid"
   value="0" />
<vectornator:setting
   key="ShowGrid"
   value="1" />
<vectornator:setting
   key="GridSpacing"
   value="36" />
<rdf:RDF><cc:Work
     rdf:about=""><dc:format>image/svg+xml</dc:format><dc:type
       rdf:resource="http://purl.org/dc/dcmitype/StillImage" /></cc:Work></rdf:RDF></metadata>
<defs
   id="defs3798" />
<g
   id="Layer 1"
   vectornator:layerName="Layer 1"
   transform="translate(332.39724,-502.49723)">

<path
   d="m 42.410131,852.68021 c -40.5050004,31.504 -30.162,94.32798 17.78,116.45498 45.551999,21.024 112.746999,30.604 162.681999,23.114 17.344,-2.602 36.025,-10.839 52.45,-16.891 22.336,-8.229 86.051,-45.69598 69.34,-79.11898 -9.82,-19.639 -43.604,-17.779 -61.339,-17.779 -63.751,0 -133.959,45.278 -157.349,106.67698 -13.929,36.56501 -22.538,81.62901 18.669,102.23201 19.349,9.675 38.07,13.335 59.561,13.335 16.483,0 26.47,-0.2 25.78,-0.889 -6.943,-6.943 -72.594,25.579 -80.897,31.114 -54.113002,36.076 -138.588999,129.482 -93.341999,197.352 5.913,8.869 9.863,16.685 19.558,22.225 85.771999,49.012 214.759999,-18.6 282.693999,-70.229 30.344,-23.062 76.614,-64.806 69.34,-108.455 -1.747,-10.482 -26.549,-2.505 -30.226,0.889 -18.315,16.906 -44.697,46.597 -34.67,74.674 11.468,32.109 76.734,32.975 103.122,29.336 42.519,-5.865 89.381,-36.255 127.123,-54.228 55.776,-26.56 120.999,-49.091 183.127,-52.449 17.05,-0.922 57.23,-5.762 76.45,1.778 95.37,37.397 77.58,126.598 -1.77,170.683"
   id="path3802"
   inkscape:connector-curvature="0"
   style="opacity:1;fill:none;stroke:#000000;stroke-width:10;stroke-linecap:butt;stroke-linejoin:round" />
<path
   d="m 366.88613,1067.8122 c -21.019,38.535 -50.112,73.922 -73.785,111.122 -7.589,11.926 -15.458,23.673 -23.113,35.559 -13.233,20.546 -19.221,24.891 -12.446,24.891"
   id="path3804"
   inkscape:connector-curvature="0"
   style="opacity:1;fill:none;stroke:#000000;stroke-width:10;stroke-linecap:butt;stroke-linejoin:round" />

<path
   d="m 295.93413,1090.3542 c 3.258,14.983 23.959,88.552 29.518,88.552"
   id="path3808"
   inkscape:connector-curvature="0"
   style="opacity:1;fill:none;stroke:#000000;stroke-width:10;stroke-linecap:butt;stroke-linejoin:round" />
<path
   d="m 304.76013,1092.0962 c 1.836,15.296 5.555,40.37 9.768,54.768 0.751,2.568 2.124,4.888 3.067,7.36 0.534,1.398 2.153,3.941 2.153,3.941 0,0 0.333,-1.415 0.543,-1.073 1.343,2.181 3.63,5.263 4.287,7.717 0.136,0.509 0.676,1.43 0.676,1.43 0,0 -1.128,-4.956 -2.054,-7.313 -1.959,-4.981 -4.021,-9.929 -5.99,-14.904 -6.185,-15.629 -9.417,-30.86 -11.417,-47.515"
   id="path3810"
   inkscape:connector-curvature="0"
   style="opacity:1;fill:none;stroke:#000000;stroke-width:10;stroke-linecap:butt;stroke-linejoin:round" />
<path
   d="m 55.159131,852.56121 c -3.809,1.148 -7.323,1.477 -10.929,3.49 -7.78,4.342 -12.933,12.925 -16.806,20.498 -10.934,21.374 -7.955,51.108 7.609,69.69698 13.406,16.012 34.976,29.62 54.972,35.09 5.342997,1.462 11.578999,1.753 16.598999,3.826"
   id="path3812"
   inkscape:connector-curvature="0"
   style="opacity:1;fill:none;stroke:#000000;stroke-width:10;stroke-linecap:butt;stroke-linejoin:round" />
<path
   d="m 52.124131,848.80221 c -6.526,0.915 -13.126,1.024 -18.699,4.396 -21.069,12.747 -24.451,49.375 -18.288,70.72 2.479,8.58298 10.462,18.77698 16.381,25.01198 4.924,5.186 22.751,21.234 29.702,20.26"
   id="path3814"
   inkscape:connector-curvature="0"
   style="opacity:1;fill:none;stroke:#000000;stroke-width:10;stroke-linecap:butt;stroke-linejoin:round" />
<path
   d="m 340.24713,885.07421 c -9.208,-1.316 -16.847,-11.697 -25.875,-14.277 -22.586,-6.453 -49.615,-10.056 -73.167,-6.692 -22.69,3.242 -42.213,16.826 -60.228,30.337 -34.929,26.197 -68.902,53.67098 -81.419002,97.48098 -4.692,16.42101 -9.573997,44.72701 -2.008,61.12001 11.409002,24.721 42.370002,39.891 67.143002,47.514 4.57,1.406 27.205,3.783 29.668,6.246"
   id="path3816"
   inkscape:connector-curvature="0"
   style="opacity:1;fill:none;stroke:#000000;stroke-width:10;stroke-linecap:butt;stroke-linejoin:round" />
<path
   d="m 307.45613,872.13621 c -25.4,-1.412 -53.403,-6.926 -78.742,-2.454 -31.073,5.483 -57.008,28.322 -80.305,47.736 -5.812,4.844 -9.401,11.855 -14.722,17.17698 -7.646,7.646 -15.986,20.579 -19.63,30.783"
   id="path3818"
   inkscape:connector-curvature="0"
   style="opacity:1;fill:none;stroke:#000000;stroke-width:10;stroke-linecap:butt;stroke-linejoin:round" />
<path
   d="m 276.45013,873.47421 c -24.71,0 -51.793,6.104 -74.504,15.838 -6.06,2.597 -13.821,9.136 -18.515,13.83 -2.899,2.899 -7.723,7.445 -8.03,7.138 -0.384,-0.383 8.961,-7.368 9.591,-7.807 5.599,-3.895 27.733,-17.623 33.907,-17.623 0.476,0 -0.524,0.814 -0.893,1.116 -1.766,1.445 -3.758,2.63 -5.576,4.015 -3.491,2.659 -7.256,5.327 -11.154,7.361 -1.813,0.947 -7.159,3.537 -5.799,2.008 10.214,-11.491 26.67,-18.375 39.259,-26.768 1.352,-0.901 -3.231,0.612 -4.684,1.338 -3.667,1.834 -7.517,3.119 -11.376,4.461 -1.245,0.433 -5.102,1.261 -3.793,1.116 4.973,-0.553 9.573,-3.471 14.277,-5.131 1.686,-0.595 3.418,-1.048 5.13,-1.561 0.143,-0.043 0.586,-0.052 0.446,0 -8.515,3.193 -17.318,5.59 -25.429,9.815 -5.286,2.753 -19.858,11.545 -5.577,4.238 1.776,-0.909 3.555,-1.813 5.354,-2.677 1.919,-0.921 3.863,-1.792 5.799,-2.677 2.787,-1.272 5.38,-2.387 8.254,-3.346 0.353,-0.117 -0.765,-0.125 -1.115,0 -2.638,0.947 -5.25,1.977 -7.808,3.123 -1.76,0.789 -3.405,1.815 -5.13,2.677 -10.104,5.052 -19.186,10.821 -27.884,18.069 -7.198,5.998 -8.635,7.569 -8.476,7.807 1.474,2.211 9.798,-5.238 10.261,-5.577 2.713,-1.986 5.465,-3.92 8.253,-5.799 0.773,-0.521 3.287,-1.755 2.454,-1.339 -9.685,4.843 -19.681,12.177 -27.883,19.184 -3.325,2.839 -6.768,5.565 -9.815,8.7 -1.288,1.324 -5.179,5.143 -3.569,4.238 9.934,-5.588 19.615,-14.039 27.66,-22.084 0.848,-0.848 -2.184,1.04 -3.123,1.785 -2.806,2.225 -5.35,4.762 -8.03,7.138 -7.201,6.382 -14.386,12.823 -21.192,19.62998 -0.995,0.995 -8.476,7.186 -8.476,9.146 0,2.105 3.245,-2.701 4.684,-4.239 3.117,-3.329 10.919,-10.75698 14.053,-13.82998 21.891,-21.461 -9.934,9.71198 6.915,-7.138 0.521,-0.521 2.22,-1.891 1.562,-1.561 -9.921,4.96 -19.165,15.42998 -26.768,23.19898 -4.848,4.953 -3.523,4.172 -8.031,9.145 -1.36,1.502 -4.629,4.679 -4.238,4.239 8.543,-9.611 16.525,-24.77298 27.214,-31.89898 0.788,-0.525 -1.293,1.387 -2.007,2.008 -1.315,1.143 -2.73,2.17 -4.016,3.346 -2.211,2.023 -4.367,4.10898 -6.469,6.24498 -5.831,5.929 -11.949,12.29 -16.953,18.961 -1.386,1.848 -2.558,3.847 -3.792,5.8 -0.852,1.35 -3.417,5.306 -2.23,4.238 7.241,-6.517 12.493,-15.17 19.406,-22.083 2.587,-2.587 5.182,-7.698 8.7,-6.692 0.223,0.063 -2.729,4.992 -5.354,8.253 -5.169,6.422 -10.324,12.943 -14.499,20.076 -0.985,1.682 -3.133,5.945 -4.015,8.031 -0.367,0.866 -1.313,3.518 -0.892,2.676 1.867,-3.734 3.787,-7.384 6.022,-10.93 1.144,-1.814 2.345,-3.593 3.569,-5.354 1.156,-1.66 2.342,-3.299 3.57,-4.907 1.524,-1.998 3.214,-4.123 5.13,-5.8 0.528,-0.462 1.884,-1.81 1.785,-1.115 -0.459,3.21 -4.066,5.648 -6.023,7.807 -5.986,6.605 -10.858,14.706 -15.392,22.307 -3.871,6.49 -7.392,12.178 -1.561,0.892 1.496,-2.895 2.943,-5.816 4.461,-8.699 1.416,-2.69 6.581,-9.705 7.807,-13.384 0.368,-1.102 -1.947,1.327 -2.676,2.23 -2.178,2.697 -4.073,5.612 -6.023,8.477 -3.838,5.636 -7.202,11.556 -10.708,17.399 -0.352,0.588 -4.013,8.365 -5.353,8.7 -1.809,0.452 1.382,-3.47 2.231,-5.131 1.058,-2.073 2.052,-4.179 3.122,-6.246 4.38,-8.456 7.427,-18.007 13.161,-25.653 0.998,-1.33 -1.452,2.992 -2.23,4.462 -0.717,1.353 -1.483,2.679 -2.231,4.015 -3.344,5.971 -6.971,11.947 -9.592,18.292 -0.817,1.978 -1.535,3.998 -2.23,6.022 -0.147,0.428 -0.322,1.78 -0.224,1.339 1.989,-8.947 6.516,-17.558 10.708,-25.653 0.569,-1.099 0.9,-3.676 2.007,-3.123 1.018,0.509 -6.696,12.355 -7.138,13.161 -4.509,8.234 -7.073,12.431 -9.815,20.299 -1.254,3.598 -2.547,7.20501 -3.346,10.93001 -0.06,0.281 -0.968,6.284 -0.892,6.246 2.937,-1.468 8.478,-22.41301 9.592,-24.98301 0.055,-0.127 3.161,-6.46 4.015,-6.246 2.533,0.633 -1.509,5.026 -2.677,7.361 -1.547,3.094 -3.093,6.192 -4.461,9.369 -2.919,6.77601 -8.972002,22.65401 -5.354,29.89101 0.909,1.817 1.487,-2.823 2.677,-8.03 1.471,-6.436 2.955,-12.491 4.908,-18.73801 0.199,-0.639 0.099,1.34601 0,2.00801 -0.49,3.262 -1,2.785 -2.231,6.245 -3.418,9.603 -5.354,18.829 -5.354,28.999 0,2.9 0,11.6 0,8.7 0,-7.213 0,-14.425 0,-21.638 0,-0.074 0,0.149 0,0.223 0,1.859 0,3.718 0,5.577 0,0.534 0,7.582 0,7.584 0.114,6.623 0.1,16.144 4.908,21.638 1.13,1.292 0.446,-3.414 0.446,-5.131 0,-4.927 0.59,-10.066 -0.223,-14.945 -0.147,-0.88 0,1.784 0,2.677 0,0.398 0,5.576 0,5.576 0.619,5.449 1.964,10.136 4.015,15.169 2.945,7.228 0.889,-9.592 -0.669,-9.592 -1.952,0 1.024,3.779 1.784,5.577 1.661,3.925 2.821,8.117 5.354,11.599 0.347,0.477 3.26,4.101 3.792,3.569 1.097,-1.097 -1.692,-5.854 -1.784,-6.023 -3.134,-5.714 -7.464,-10.61 -8.923,-17.176 -3.754,-16.893 -1.515,-36.44 3.346,-52.64401 0.523,-1.742 2.442,-13.384 4.015,-13.384"
   id="path3820"
   inkscape:connector-curvature="0"
   style="opacity:1;fill:none;stroke:#000000;stroke-width:10;stroke-linecap:butt;stroke-linejoin:round" />
<path
   d="m 227.57813,1099.8852 c -14.063,0 -28.148,8.758 -40.548,12.891 -40.503,13.501 -88.101002,31.708 -116.487999,68.205 -12.984,16.694 -27.516,32.134 -34.923,52.502 -3.971,10.922 -9.316,21.636 -11.719,33.047 -6.916,32.855 4.608,71.616 34.923,89.3 20.496,11.955 42.233999,18.831 66.329999,17.109 11.326,-0.809 22.27,-4.837 33.517,-5.859 19.109,-1.737 38.051,-3.699 56.485,-9.844 13.127,-4.376 25.201,-9.446 37.97,-14.766 4.047,-1.686 9.673,-7.266 13.829,-7.266"
   id="path3822"
   inkscape:connector-curvature="0"
   style="opacity:1;fill:none;stroke:#000000;stroke-width:10;stroke-linecap:butt;stroke-linejoin:round" />
<path
   d="m 124.99813,1144.8632 c -4.916,0.957 -7.687,4.536 -11.337,7.729 -4.916,4.301 -5.822,4.592 -5.53,4.403 3.837,-2.474 7.18,-6.291 10.436,-9.45 1.634,-1.584 5.334,-7.028 4.854,-4.803 -1.27,5.878 -11.174,14.086 -15.4,18.3 -2.894,2.884 -2.955,2.369 -5.773,4.35 -0.584,0.41 -2.182,1.826 -1.583,1.439 4.445,-2.866 8.275,-8.23 11.985,-11.913 0.325,-0.322 9.67,-9.557 7.395,-8.326 -12.609,6.823 -21.372002,23.825 -29.415999,29.012 -0.53,0.342 0.693997,-1.058 1.096997,-1.544 1.183,-1.427 2.32,-2.891 3.481,-4.337 8.390002,-10.455 -0.979,1.322 8.110002,-10.46 1.609,-2.086 7.257,-5.811 4.682,-6.367 -3.259,-0.704 -4.93,4.493 -7.323,6.814 -6.303002,6.114 -16.651999,13.197 -20.614999,21.244 -1.351,2.743 5.042,-3.49 7.303,-5.546 3.708997,-3.372 7.196997,-6.981 10.888997,-10.37 1.406,-1.29 2.788002,-2.607 4.158002,-3.936 0.99,-0.96 3.786,-4.006 2.922,-2.93 -9.154002,11.406 -30.111999,18.026 -35.569999,32.771 -0.859,2.319 4.714,-1.798 6.588,-3.412 1.76,-1.515 3.436,-3.126 5.096,-4.751 4.228,-4.136 14.392997,-16.227 14.927997,-16.112 1.802,0.389 -12.758997,14.723 -13.206997,15.212 -3.344,3.657 -22.526,21.847 -22.742,26.382 -0.016,0.334 1.575,-0.252 6.47,-5.218 6.791,-6.89 13.402,-14.212 19.452,-21.75 0.58,-0.723 -1.114,1.486 -1.74,2.169 -5.492,5.979 -2.671,2.546 -8.091,9.192 -6.112,7.495 -11.449,15.394 -16.989,23.3 -1.299,1.854 -1.772,5.977 -3.986,5.499 -1.926,-0.415 2.223,-3.254 3.343,-4.875 3.439,-4.98 5.037,-7.837 8.201,-13.239 1.643,-2.805 6.758,-11.11 5.102,-8.312 -5.772,9.753 -12.374,19.252 -18.438,28.838 -2.387,3.772 -5.061,7.357 -7.486,11.104 -0.954,1.475 -3.625,6.018 -2.751,4.494 6.609,-11.524 18.742,-25.531 21.562,-38.594 0.018,-0.081 -0.035,0.162 -0.052,0.243 -0.591,2.738 -0.301,1.93 -2.823,6.005 -1.135,1.833 -2.51,3.506 -3.691,5.309 -3.922,5.989 -7.475,12.216 -10.867,18.516 -0.858,1.594 -1.794,3.15 -2.56,4.79 -0.676,1.444 -2.405,5.904 -1.727,4.461 4.296,-9.139 8.479,-18.327 12.566,-27.562 3.117,-7.043 1.863,-3.917 3.958,-10.085 0.295,-0.867 1.014,-3.517 0.821,-2.622 -2.826,13.089 -12.12,26.913 -18.055,38.843 -2.337,4.699 -3.602,6.851 -5.975,11.176 -0.737,1.345 -3.11,6.156 -3.013,5.71 1.652,-7.652 8.704,-16.108 11.916,-23.377 0.986,-2.231 1.784,-4.542 2.738,-6.787 1.226,-2.884 2.596,-6.131 2.58,-6.058 -2.738,12.68 -11.638,23.817 -15.48,36.346 -0.61,1.988 -4.742,11.294 -2.592,13.179 2.889,2.532 6.12,-5.6 6.437,-6.243 3.251,-6.601 5.954,-13.652 8.508,-20.551 0.696,-1.88 1.395,-3.761 1.989,-5.676 0.294,-0.95 0.839,-3.89 0.629,-2.917 -1.34,6.209 -4.814,11.876 -6.905,17.844 -0.936,2.67 -1.629,5.42 -2.514,8.107 -0.837,2.539 -1.845,5.02 -2.652,7.569 -0.227,0.716 -4.847,17.173 -0.431,9.065 0.933,-1.713 1.638,-3.541 2.422,-5.328 0.891,-2.029 17.572,-51.165 9.119,-22.2 -0.772,2.645 -1.774,5.218 -2.704,7.811 -6.234,17.387 -0.242,-0.483 -5.166,15.676 -1.912,6.275 -3.44,12.399 -4.823,18.803 -0.158,0.729 0.303,-1.461 0.472,-2.188 1.033,-4.441 2.118,-8.87 3.13,-13.317 1.615,-7.09 2.324,-7.343 1.428,-13.684 -0.377,-2.672 -2.667,-8.406 -4.679,-6.607 -5.372,4.801 -7.363,21.756 -8.19,28.506 -0.607,4.946 -0.091,4.858 0.541,9.276 0.237,1.662 -0.706,5.896 0.704,4.986 0.978,-0.631 4.721,-21.192 4.986,-23.093 1.876,-13.432 -0.813,0.966 1.18,-10.176 0.161,-0.901 0.801,-3.514 0.334,-2.726 -4.9,8.28 -6.172,31.241 -6.282,40.876 -0.032,2.881 -0.793,10.772 2.238,13.203 0.876,0.704 3.809,-20.177 3.98,-24.327 0.087,-2.097 0.24,-4.19 0.34,-6.287 0.094,-1.968 0.476,-7.737 -0.251,-5.905 -3.784,9.535 -1.447,24.053 -1.252,34.075 0.034,1.748 0.156,8.029 0.575,10.3 0.212,1.153 1.172,3.87 1.905,2.956 3.788,-4.72 3.082,-18.27 3.633,-23.894 0.377,-3.838 0.713,-11.549 0.713,-11.549 0,0 -0.261,1.814 -0.334,2.727 -0.269,3.342 -0.46,6.69 -0.641,10.038 -0.364,6.729 -0.406,13.421 1.01,20.062 0.015,0.066 4.395,13.321 6.461,11.317 3.189,-3.093 -1.788,-15.292 -2.889,-18.432 -0.928,-2.647 -0.791,-9.324 -3.149,-7.804 -0.921,0.594 1.204,6.056 1.224,6.116 2.578,7.72 4.749,15.815 9.065,22.819 0.2,0.324 7.116,8.547 7.387,8.21 0.956,-1.192 -1.394,-2.724 -2.183,-4.033 -2.689,-4.463 -4.658,-9.82 -7.394,-14.063 -0.948,-1.47 1.136,3.308 1.729,4.953 0.694,1.926 1.286,3.89 2.058,5.787 0.781,1.919 1.694,3.783 2.596,5.649 0.631,1.303 3.378,7.382 5.843,7.112 2.217,-0.242 -1.945,-4.054 -3.326,-5.806 -2.935,-3.722 -6.494,-6.924 -9.397,-10.679 -1.327,-1.716 -3.674,-5.373 -3.674,-5.373 0,0 7.288,9.097 10.764,13.773 5.635,7.579 15.071,13.517 23.891,16.607 7.723,2.706 14.965997,5.013 22.967999,6.741 0.699,0.15 5.936,2.449 4.632,3.289 -1.697,1.095 -8.994002,-1.687 -11.234002,-2.171 -11.601997,-2.505 -22.843997,-9.493 -31.983997,-16.828 -4.646,-3.729 -12.833,-12.439 -12.833,-12.439 0,0 5.921,5.436 4.364,8.066 -0.614,1.038 -13.573,-9.032 -12.681,-9.607 1.826,-1.178 9.475,7.134 10.703,8.163 1.254,1.049 5.242,3.27 3.608,3.323 -7.075,0.228 -20.903,-19.914 -11.999,-12.768"
   id="path3824"
   inkscape:connector-curvature="0"
   style="opacity:1;fill:none;stroke:#000000;stroke-width:10;stroke-linecap:butt;stroke-linejoin:round" />
<path
   d="m 303.77113,1317.4722 c -40.549,15.626 -80.004,32.448 -120.845,49.192 -13.445,5.513 -25.986,7.559 -40.21,8.895 -4.959,0.466 -9.938,0.511 -14.86,0.31 -2.261,-0.092 -6.713,-1.023 -6.713,-1.023 0,0 4.815,0.305 7.197,0.668 4.187,0.638 9.675,0.697 13.778,-0.261 7.329,-1.709 15.788,-1.894 23.311,-2.241 7.459,-0.344 15.251,-3.646 22.646,-4.919 8.193,-1.41 18.313,-6.929 25.703,-10.892 0.857,-0.459 7.828,-3.286 8.161,-2.834 0.283,0.385 -6.493,4.112 -7.126,4.494 -6.985,4.22 -14.887,7.618 -22.752,9.84 -21.809,6.161 -43.361,10.347 -65.883,6.912 -7.666,-1.169 -15.634,-1.096 -23.478,-2.292 -3.266002,-0.498 -6.352002,-0.989 -9.281002,-2.488 -0.58,-0.297 -1.824,-0.708 -1.824,-0.708 0,0 3.883,0.807 5.842,1.106 3.857002,0.588 7.668002,1.512 11.443002,2.389 9.584,2.224 20.06,3.595 29.74,3.461 3.342,-0.046 8.89,0.733 11.484,-2.112 0.853,-0.936 -2.434,0.704 -3.612,1.166 -3.003,1.177 -1.161,0.56 -4.662,1.006 -4.711,0.602 -9.883,0.632 -14.649,0.343 -7.034,-0.428 -15.796,-0.901 -22.447,-3.423 -6.138002,-2.327 -9.993002,-6.461 -16.886999,-7.513"
   id="path3826"
   inkscape:connector-curvature="0"
   style="opacity:1;fill:none;stroke:#000000;stroke-width:5;stroke-linecap:butt;stroke-linejoin:round" />
<path
   d="m 316.01913,868.63021 c 12.437,5.394 28.522,11.096 31.612,26.223 0.621,3.037 2.213,6.383 0.894,9.425"
   id="path3828"
   inkscape:connector-curvature="0"
   style="opacity:1;fill:none;stroke:#000000;stroke-width:5;stroke-linecap:butt;stroke-linejoin:round" />
<path
   d="m 420.55413,1162.9252 c -12.68,2.109 -30.511,1.421 -40.845,9.421 -19.252,14.902 -30.162,48.1 -27.537,71.387 1.12,9.946 2.578,18.765 10.825,25.599 28.074,23.26 66.64,16.503 99.058,11.112"
   id="path3830"
   inkscape:connector-curvature="0"
   style="opacity:1;fill:none;stroke:#000000;stroke-width:5;stroke-linecap:butt;stroke-linejoin:round" />
<path
   d="m 394.56013,1172.5032 c -5.014,0.834 -3.239,0.223 -9.953,4.47 -1.307,0.827 -2.428,1.916 -3.653,2.86 -0.328,0.252 -1.374,0.916 -1.005,0.73 3.631,-1.834 6.526,-4.18 9.802,-6.51 1.711,-1.216 6.47,-1.8 5.236,-3.498 -1.331,-1.831 -9.779,5.031 -10.837,5.931 -0.717,0.611 -3.031,1.578 -2.131,1.856 2.149,0.662 9.11,-6.598 10.898,-7.818 1.004,-0.685 2.001,-1.383 3.044,-2.007 0.62,-0.371 2.608,-1.124 1.888,-1.065 -4.485,0.367 -8.589,3.662 -11.872,6.478 -1.792,1.538 -3.463,3.212 -5.205,4.807 -0.392,0.358 -1.625,1.309 -1.127,1.126 4.125,-1.52 6.286,-3.66 9.406,-6.632 1.082,-1.03 4.49,-3.082 3.014,-3.316 -2.172,-0.344 -6.161,3.958 -7.092,4.745 -1.309,1.108 -2.645,2.183 -3.958,3.286 -1.102,0.925 -2.218,1.835 -3.288,2.799 -10.72,9.657 4.82,-4.258 7.49,-6.876 0.831,-0.815 3.302,-1.37 2.618,-2.312 -0.055,-0.075 -8.356,7.223 -11.569,10.557 -2.853,2.96 -4.868,5.139 -4.11,4.624 3.559,-2.42 5.909,-6.173 8.768,-9.34 0.943,-1.044 1.879,-2.096 2.862,-3.103 0.777,-0.796 3.082,-3.187 2.435,-2.282 -3.139,4.393 -8.516,7.641 -12.36,11.439 -2.014,1.991 -4.808,4.867 -3.653,3.985 3.509,-2.676 6.515,-5.909 9.559,-9.096 1.371,-1.435 3.794,-4.135 3.502,-3.773 -3.468,4.294 -6.808,8.624 -10.018,13.114 -1.697,2.374 -4.003,5.494 -5.602,8.063 -0.398,0.639 -1.529,2.549 -0.975,2.038 4.755,-4.375 7.917,-9.653 12.239,-14.421 1.07,-1.18 2.218,-2.288 3.38,-3.377 0.967,-0.906 3.272,-3.724 3.166,-2.403 -0.334,4.158 -8.792,11.213 -11.448,14.665 -3.07,3.99 -2.368,2.465 -4.202,5.203 -0.559,0.834 -2.368,3.222 -1.644,2.525 2.842,-2.74 14.016,-17.034 14.584,-20.629 0.242,-1.527 -2.592,1.734 -3.653,2.86 -1.468,1.559 -2.74,3.294 -4.049,4.99 -2.254,2.918 -13.545,14.471 -12.819,18.833 0.209,1.255 1.829,-1.796 2.527,-2.859 1.131,-1.725 1.992,-3.613 3.045,-5.386 2.651,-4.467 6.106,-8.63 8.496,-13.236 0.234,-0.451 -1.044,0.246 -1.4,0.608 -1.474,1.499 -2.839,3.112 -4.08,4.807 -2.455,3.354 -4.418,7.045 -6.486,10.65 -7.549,13.155 -4.151,7.742 -2.254,4.503 2.7,-4.608 4.811,-9.519 7.4,-14.179 1.315,-2.366 6.709,-5.181 4.507,-6.755 -0.014,-0.01 -6.457,7.344 -10.2,13.144 -1.218,1.887 -4.726,7.552 -3.137,5.964 3.656,-3.653 5.807,-9.49 8.587,-13.814 0.975,-1.516 3.648,-3.289 2.589,-4.747 -0.281,-0.387 -1.493,0.905 -4.628,7.151 -2.422,4.824 -4.268,9.844 -5.758,15.032 -0.642,2.235 -3.386,5.464 -1.493,6.816 1.114,0.797 1.256,-2.436 1.827,-3.682 1.793,-3.909 3.488,-7.858 5.573,-11.623 0.678,-1.224 2.839,-4.817 2.223,-3.56 -2.547,5.2 -15.185,24.328 -13.705,29.303 0.693,2.33 2.28,-4.303 3.228,-6.542 1.974,-4.664 3.583,-10.641 6.549,-14.789 0.308,-0.432 -0.458,0.958 -0.701,1.43 -1.167,2.273 -2.4,4.511 -3.563,6.786 -2.843,5.56 -4.995,11.261 -6.306,17.375 -0.393,1.832 -2.287,4.48 -0.763,5.569 0.767,0.548 0.749,-1.73 1.066,-2.617 1.686,-4.702 2.527,-12.763 5.454,-16.858 0.241,-0.337 -0.215,0.801 -0.366,1.187 -0.834,2.139 -1.73,4.256 -2.497,6.42 -1.628,4.591 -2.971,9.472 -3.627,14.303 -0.235,1.731 -0.611,5.323 -0.611,7.608 -10e-4,1.363 -0.325,5.288 0.303,4.078 1.901,-3.663 1.873,-9.858 2.378,-13.907 0.332,-2.654 0.267,-3.218 0.946,-5.6 0.206,-0.724 0.851,-2.781 0.974,-2.038 0.392,2.357 -1.787,6.047 -2.164,8.429 -0.95,6.006 -1.046,12.267 -0.706,18.321 0.044,0.779 0.136,9.744 1.701,10.226 3.446,1.062 0.394,-12.299 0.126,-13.908 -0.678,-4.082 -1.098,-6.288 -1.033,-5.083 0.387,7.142 1.768,15.542 6.323,21.093 0.519,0.632 6.944,7.844 8.611,5.511 1.113,-1.557 -1.808,-3.382 -2.889,-4.961 -3.703,-5.411 -9.4,-12.509 -10.524,-19.268 -0.131,-0.792 0.17,1.604 0.395,2.374 0.639,2.186 1.325,2.995 2.342,5.052 2.495,5.049 5.016,9.936 8.912,14.094 2.76,2.947 5.409,4.785 9.25,5.968 1.231,0.38 4.978,1.082 3.834,0.489 -5.092,-2.643 -9.265,-6.34 -13.357,-10.352 -2.607,-2.557 -7.027,-8.402 -7.027,-8.402 0,0 3.396,5.009 5.506,7.153 5.21,5.295 10.832,10.411 17.647,13.58 2.288,1.064 5.273,1.93 7.729,2.468 1.93,0.423 7.853,0.195 5.904,0.519 -6.002,0.998 -16.504,-7.03 -20.752,-10.811 -2.02,-1.798 -4.837,-6.515 -4.837,-6.515 0,0 5.097,5.295 8.154,7.277 5.824,3.776 12.158,6.263 18.561,8.924 3.14,1.304 6.62,1.866 9.86,2.864 1.175,0.362 4.865,0.317 3.652,0.518 -4.277,0.712 -10.69,-2.63 -14.729,-3.931 -0.633,-0.204 -6.922,-2.121 -7.12,-2.193 -0.453,-0.166 -1.723,-0.652 -1.248,-0.731 5.706,-0.949 16.056,4.971 22.002,5.912 2.416,0.382 4.982,0.473 7.425,0.641 1.115,0.077 4.45,-0.365 3.348,-0.181 -7.157,1.19 -18.873,1.297 -25.625,-1.744 -1.324,-0.596 2.928,-0.071 4.352,0.215 2.337,0.468 4.665,0.984 7,1.463 9.617,1.973 16.942,2.437 26.598,0.831"
   id="path3832"
   inkscape:connector-curvature="0"
   style="opacity:1;fill:none;stroke:#000000;stroke-width:5;stroke-linecap:butt;stroke-linejoin:round" />
<path
   d="m 763.71313,1170.8412 c 9.4,-2.42 25.43,-0.167 36.02,0.325 15.13,0.703 29.95,0.497 45.09,3.109 27.71,4.779 55.18,28.724 61.64,57.64 6.44,28.839 -7.95,57.76 -30.99,74.771 -7.78,5.743 -16.25,11.616 -24.48,16.416 -2.72,1.587 -5.56,2.874 -8.47,4.164 -1.32,0.588 -5.14,2.69 -3.81,2.102"
   id="path3834"
   inkscape:connector-curvature="0"
   style="opacity:1;fill:none;stroke:#000000;stroke-width:5;stroke-linecap:butt;stroke-linejoin:round" />
<path
   d="m 844.65313,1328.9072 c -13.67,1.528 -11.95,39.092 5.37,37.157 2.01,-0.224 -1.13,-4.147 -0.43,-6.042 1.61,-4.378 1.98,-10.154 5.02,-13.958 11.95,-14.964 24.02,-30.823 37.34,-45.098 9.07,-9.714 21.63,-39.649 20.1,-53.402 -0.77,-6.866 0.11,-14.202 -0.69,-21.36 -0.23,-2.062 -0.82,-7.474 -2.11,-5.853 -1.8,2.248 1.31,13.913 1.67,17.109 0.29,2.647 1.13,7.912 1.13,7.912 0,0 -0.56,-4.972 -0.84,-7.458 -0.56,-5.001 -1.52,-8.803 -3.19,-13.285 -0.84,-2.275 -2.7,-6.762 -2.7,-6.762 0,0 1.55,5.825 2.2,8.767 1.29,5.874 2.61,11.695 3.67,17.616 3.23,17.992 -2.84,35.366 -13.98,49.307 -3.76,4.703 -6.98,8.737 -10.68,13.374 -1.94,2.422 -6.57,6.581 -6.57,6.581 0,0 2.8,-4.329 4.4,-6.339 2.91,-3.637 6.4,-6.887 9.03,-10.753 2.68,-3.937 0.6,-1.643 2.67,-4.44 0.61,-0.825 2.95,-2.521 1.93,-2.407 -2.77,0.309 -9.08,9.275 -10.72,10.941 -2.18,2.223 -9.97,7.899 -5.21,5.698 3.92,-1.813 8.19,-7.596 11.49,-10.541 0.34,-0.3 3.61,-3.28 4.2,-3.879 0.28,-0.289 1.15,-1.124 0.88,-0.829 -6.37,6.823 -12.99,13.437 -19.42,20.197 -1.62,1.699 -3.17,3.461 -4.79,5.162 -0.98,1.036 -4.22,3.396 -2.8,3.237 4.07,-0.455 11.4,-10.907 14.29,-13.777 1.61,-1.592 6.35,-6.355 5.11,-4.468 -5.65,8.558 -13.9,15.944 -20.76,23.513 -7.44,8.201 0.3,0.306 -6.52,7.062 -1.18,1.171 -4.84,4.538 -3.5,3.558 5.41,-3.952 9.78,-10.359 14.37,-15.248 1.54,-1.636 3.24,-3.108 4.84,-4.682 0.37,-0.362 1.53,-1.378 1.09,-1.097 -7.48,4.851 -14.66,13.72 -21.18,19.664 -3.73,3.396 -8.76,8.212 -7.97,7.223 7.79,-9.743 23.27,-16.953 29.02,-28.09 0.45,-0.863 -2.04,0.043 -2.86,0.564 -2.54,1.609 -4.79,3.631 -7.19,5.431 -8.09,6.064 -1.07,0.395 -12.24,10.381 -3.73,3.336 -8.12,6.792 -8.01,6.742 7.94,-3.673 15.33,-14.454 21.85,-20.225 4.36,-3.858 20.95,-17.749 3.4,-4.52 -1.45,1.091 -2.85,2.251 -4.25,3.398 -2.17,1.769 -4.28,3.606 -6.47,5.351 -3.12,2.49 -6.76,4.786 -9.62,7.652 -0.13,0.128 0.3,-0.196 0.46,-0.294 2.52,-1.638 0.96,-0.521 4.46,-3.666 5.33,-4.787 10.41,-9.413 16.27,-13.511 13.58,-9.506 -4.37,3.332 5.61,-4.281 0.38,-0.286 1.54,-1.079 1.12,-0.856 -8.34,4.469 -15.68,11.283 -23.19,16.964 -8.01,6.058 -0.58,-0.066 -6.95,5.405 -0.92,0.789 -3.85,2.622 -2.64,2.488 4.1,-0.458 6.66,-4.863 9.88,-7.439 1.67,-1.33 6.7,-4.883 4.63,-4.414 -4.1,0.924 -16.92,8.664 -18.34,12.524 -0.21,0.588 10.31,-6.957 10.19,-6.984 -9.21,-1.966 -15.88,17.406 -3.88,2.381 1.09,-1.358 -3.28,1.33 -4.6,2.463 -2.41,2.071 -10.25,9.93 -8.43,13.854 1.04,2.256 9.24,-8.607 7.13,-10.298 -1.73,-1.377 -10.59,15.718 -6.86,17.088 3.24,1.191 3.49,-5.814 3.82,-7.247 0.8,-3.555 3.97,-10.189 3.97,-10.189 0,0 -0.89,1.196 -1.25,1.846 -1.76,3.149 -2.88,6.34 -3.53,9.894 -0.18,1.035 -0.67,3.857 0.11,3.154 2.76,-2.471 5.13,-8.337 6.73,-11.714 1.22,-2.548 3.84,-8.55 3.93,-8.477 0.57,0.454 -10.04,18.152 -8.12,21.125 0.34,0.525 5.52,-8.618 5.8,-9.173 0.78,-1.561 3.49,-6.017 2.4,-4.654 -3.07,3.843 -5.74,10.328 -7.34,14.95 -0.54,1.572 -2.32,5.131 -0.67,4.946 2.37,-0.265 6.23,-11.779 7.91,-14.281 0.41,-0.618 0.56,-2.103 1.25,-1.846 0.94,0.345 -8.37,12.233 -7.71,18.158 0,0.032 0.62,0.5 2.99,-5.937 0.92,-2.506 2.97,-5.099 3.52,-7.702 0.4,-1.849 -2.81,2.566 -3.92,4.093 -1.61,2.199 -3.01,5.314 -3.74,7.969 -0.47,1.713 0.55,7.086 0.35,5.32 -0.27,-2.421 -0.57,-4.579 -1.26,-6.923 -4.87,-16.436 -2.41,7.207 1.23,8.875 2.36,1.079 -3.66,-6.59 -4.06,-8.071 -0.13,-0.462 -0.77,-6.724 -1.18,-6.202 -3.46,4.326 -0.87,9.822 2.36,12.403 1.32,1.059 -2,-2.776 -2.68,-4.329 -0.95,-2.162 -0.79,-4.856 -1.05,-7.191 -0.11,-1.042 0.24,2.085 0.35,3.128 0.21,1.842 0.55,5.876 2.68,6.521 3.74,1.131 1.46,-17.771 3.3,-22.78 1.44,-3.917 5.42,-7.438 8.63,-9.977 0.51,-0.408 4.4,-2.399 4.36,-2.436 -2.92,-2.327 -12.93,4.335 -15.48,5.384 -11.66,4.787 -9.18,26.087 0.69,32.321 1.3,0.825 -4.76,-4.926 -5.3,-5.985 -2.26,-4.459 -5.02,-12.414 -3.91,-17.588 0.87,-4.108 3.4,-7.381 7,-9.308 1.76,-0.943 7.17,-0.843 5.61,-2.089 -5.33,-4.256 -14.06,16.06 -14.1,19.846 -0.07,5.388 0.45,9.799 4.44,13.631 1.51,1.448 3.38,2.459 5.24,3.312 0.82,0.375 3.44,0.834 2.54,0.934 -2.29,0.257 -5.06,-2.508 -6.55,-4.14 -24.5,-26.832 25.23,-40.783 38.97,-52.344 8.76,-7.367 16.43,-15.617 24.93,-23.248"
   id="path3836"
   inkscape:connector-curvature="0"
   style="opacity:1;fill:none;stroke:#000000;stroke-width:5;stroke-linecap:butt;stroke-linejoin:round" />
<path
   d="m 393.71013,1103.5942 c 21.489,2.536 35.093,-8.722 47.442,-25.592 10.242,-13.992 7.641,-23.359 3.818,-20.343 -18.664,14.725 -37.902,90.279 1.479,87.601 9.334,-0.635 18.25,-13.498 23.613,-19.898 23.969,-28.606 35.193,-67.847 43.876,-103.516 2.331,-9.577 9.519,-34.01101 2.262,-43.20901 -5.897,-7.475 -11.519,24.56001 -12.155,26.92001 -8.54,31.663 -16.461,66.245 -15.963,99.248 0.143,9.419 0.655,18.331 3.391,27.336 0.135,0.443 2.672,8.407 5.454,5.842 15.345,-14.144 18.573,-74.949 40.249,-80.787 4.409,-1.188 1.373,16.405 1.173,18.096 -1.163,9.86 -6.003,48.252 5.082,53.055 9.214,3.993 12.681,-8.469 15.442,-14.718 8.482,-19.203 10.526,-38.399 24.475,-55.239 4.135,-4.993 14.973,-14.054 22.403,-9.644 15.526,9.215 2.439,55.895 -4.601,67.036 -3.666,5.802 -13.051,18.296 -21.801,12.55 -4.934,-3.24 -4.992,-15.804 -5.093,-20.922 -0.326,-16.591 4.29,-51.814 25.051,-56.116 12.745,-2.641 12.286,45.396 13.993,53.634 0.823,3.973 6.942,15.658 13.404,10.56 15.189,-11.983 13.85,-39.387 17.95,-56.008 1.223,-4.96 2.925,-17.567 8.944,-19.738 5.169,-1.865 3.896,14.476 4.19,16.561 1.672,11.878 1.443,23.771 2.401,35.727 0.418,5.216 1.493,9.637 3.011,14.532 0.311,1.003 1.068,2.962 1.068,2.962 0,0 1.613,-13.672 2.42,-20.508 1.852,-15.695 4.766,-41.348 16.222,-53.377 2.025,-2.127 4.545,16.508 4.901,18.536 1.207,6.863 5.527,54.11 22.44,46.124 4.211,-1.988 6.537,-11.352 7.929,-15.132 7.463,-20.253 8.443,-52.844 35.363,-55.373 3.46,-0.325 8.45,-1.061 11.7,0.909 13.65,8.258 6.79,44.806 -1.3,55.137 -4.39,5.603 -15.13,17.829 -23.5,10.932 -13.14,-10.814 -6.92,-42.833 1.6,-53.684 3.1,-3.938 14.89,-18.269 22.22,-12.029 8.77,7.472 9.53,56.805 10.42,67.863 2.11,26.308 -2.93,51.673 -5.4,77.81 -5.45,57.729 -1.53,130.508 -56.48,166.299 -5.121,3.335 -10.172,3.525 -15.93,2.846 -34.232,-4.039 -38.52,-48.514 -32.603,-76.15 7.762,-36.251 37.97,-27.42 49.173,-36.258"
   id="path3838"
   inkscape:connector-curvature="0"
   style="opacity:1;fill:none;stroke:#000000;stroke-width:10;stroke-linecap:butt;stroke-linejoin:round" />
<path
   d="m 795.06313,1082.4232 c 18.68,-6.294 32.37,-22.843 39.82,-41.141 1.54,-3.772 7.77,-18.621 2.01,-21.029 -6.3,-2.632 -13.49,21.198 -14.68,24.26 -3.98,10.308 -12.56,46.568 -6.24,56.918 12.87,21.052 49.4,-10.148 51.39,-27.017"
   id="path3840"
   inkscape:connector-curvature="0"
   style="opacity:1;fill:none;stroke:#000000;stroke-width:10;stroke-linecap:butt;stroke-linejoin:round" />
<path
   d="m 444.00013,1058.3272 c -18.814,8.398 -30.662,49.604 -28.56,68.159 1.148,10.128 4.555,24.488 16.637,26.758 13.623,2.559 24.364,-1.834 31.216,-14.158 2.005,-3.605 5.851,-6.094 7.435,-9.873 0.921,-2.197 3.767,-6.075 3.767,-6.075 0,0 -3.86,9.061 -6.808,12.944 -5.179,6.822 -16.942,17.096 -26.89,14.424 -10.661,-2.864 -16.968,-14.776 -19.775,-24.612 -1.091,-3.824 -2.815,-7.919 -3.133,-11.858 -0.064,-0.787 0.331,-2.345 0.331,-2.345 0,0 -0.466,4.65 -0.762,6.968 -0.377,2.956 0.716,15.378 3.297,16.812 2.061,1.147 -0.526,-4.687 -0.757,-7.035 -0.269,-2.731 -0.795,-9.766 0.532,-12.154 0.523,-0.939 -0.47,2.103 -0.595,3.171 -0.2,1.701 -0.316,3.324 -0.068,5.02 0.422,2.886 3.643,21.964 8.613,20.546 1.219,-0.348 -1.392,-2.119 -2.146,-3.138 -1.588,-2.148 -3.128,-4.83 -3.861,-7.4 -0.421,-1.472 -1.826,-5.654 -0.792,-4.525 0.916,0.999 1.082,9.662 1.846,11.726 0.249,0.671 4.838,5.881 5.283,4.493 0.068,-0.212 -5.853,-7.39 -6.339,-8.193 -1.134,-1.875 -1.973,-3.41 -2.574,-5.516 -0.139,-0.488 -0.765,-1.754 -0.858,-1.256 -1.511,8.041 13.65,23.953 20.14,18.007"
   id="path3842"
   inkscape:connector-curvature="0"
   style="opacity:1;fill:none;stroke:#000000;stroke-width:5;stroke-linecap:butt;stroke-linejoin:round" />
<path
   d="m 512.98913,975.88119 c -10.527,4.48 -14.68,18.864 -18.901,28.39701 -12.664,28.606 -16.377,62.49 -15.357,93.397 0.38,11.523 2.096,22.243 5.306,33.492 0.865,3.032 4.744,9.898 8.981,8.689"
   id="path3844"
   inkscape:connector-curvature="0"
   style="opacity:1;fill:none;stroke:#000000;stroke-width:5;stroke-linecap:butt;stroke-linejoin:round" />
<path
   d="m 505.12313,993.87819 c -12.768,28.83901 -17.047,59.87301 -22.854,90.78501 -1.896,10.094 0.559,20.263 0.122,30.22 -0.164,3.759 1.86,8.271 2.903,11.924 0.245,0.862 1.188,2.412 1.188,2.412 0,0 -0.796,-7.421 -1.417,-11.098 -1.284,-7.607 -0.859,-15.42 -0.355,-23.152 1.469,-22.54 0.797,-44.306 6.496,-66.615 2.293,-8.975 5.376,-17.458 8.828,-26.022 1.131,-2.80901 2.154,-5.62401 3.635,-8.28901 0.689,-1.239 2.606,-5.037 1.917,-3.797 -10.97,19.72901 -28.246,64.87501 -21.729,87.71301"
   id="path3846"
   inkscape:connector-curvature="0"
   style="opacity:1;fill:none;stroke:#000000;stroke-width:5;stroke-linecap:butt;stroke-linejoin:round" />
<path
   d="m 542.29013,1055.7852 c 6.734,-0.922 3.656,12.099 3.496,15.755 -0.637,14.544 -4.68,28.219 -3.02,42.869 0.334,2.949 1.991,11.96 5.709,12.123 2.921,0.128 -0.991,-5.649 -1.451,-6.837 -1.996,-5.169 -4.423,-12.565 -3.395,-18.035 1.664,-8.858 9.984,-39.882 2.923,-47.591 -9.058,-9.888 -19.738,9.103 -23.983,14.094 -3.875,4.556 -5.228,11.832 -6.876,17.965"
   id="path3848"
   inkscape:connector-curvature="0"
   style="opacity:1;fill:none;stroke:#000000;stroke-width:5;stroke-linecap:butt;stroke-linejoin:round" />
<path
   d="m 591.86613,1051.6402 c -6.099,3.305 -8.684,9.751 -12.456,15.057 -9.714,13.661 -18.852,33.527 -16.466,50.955 0.993,7.249 -0.328,24.228 9.966,26.162 13.653,2.564 23.633,-9.083 28.113,-19.774 0.392,-0.936 5.312,-10.469 4.958,-10.666 -0.228,-0.127 -5.527,8.219 -6.18,9.014 -5.158,6.284 -11.257,18.484 -21.176,16.044 -11.975,-2.946 -10.898,-24.636 -9.566,-33.526 0.283,-1.89 2.907,-7.651 1.324,-9.38 -0.575,-0.628 -1.058,1.361 -1.388,2.147 -0.67,1.599 -1.099,3.29 -1.587,4.953 -1.194,4.072 -0.799,8.201 -0.235,12.32 0.283,2.07 1.253,6.143 1.253,6.143 0,0 -0.44,-1.541 -0.66,-2.312 -1.104,-3.869 -0.61,-7.987 -0.161,-11.956 0.06,-0.535 0.476,-4.687 0.431,-4.624 -4.109,5.78 -2.365,15.841 -0.965,22.029 0.255,1.128 1.091,8.083 2.375,8.324 0.466,0.088 -0.776,-7.996 -0.889,-9.248 -0.211,-2.35 -0.806,-4.672 -0.757,-7.035 0.014,-0.685 0.824,-2.236 0.166,-2.048 -2.124,0.606 -0.719,6.469 -0.564,7.662 0.485,3.737 1.766,18.166 6.698,19.093 2.388,0.448 -3.941,-11.525 -4.257,-10.538 -1.351,4.216 3.238,10.018 7.064,10.737 1.756,0.33 9.28,-0.455 7.2,-1.055 -3.589,-1.034 -7.256,-6.532 -9.013,-9.68 -0.95,-1.703 -1.561,-6.989 -2.508,-5.285 -0.147,0.264 0.76,2.664 0.792,2.774 3.12,10.936 8.752,1.754 14.398,4.894 0.875,0.486 -6.647,3.113 -8.984,1.813 -1.097,-0.61 2.445,0.736 3.699,0.695 2.198,-0.073 4.431,-1.015 6.54,-1.616"
   id="path3850"
   inkscape:connector-curvature="0"
   style="opacity:1;fill:none;stroke:#000000;stroke-width:5;stroke-linecap:butt;stroke-linejoin:round" />
<path
   d="m 657.19913,1038.7492 c 16.416,16.036 3.058,51.025 8.827,71.243"
   id="path3852"
   inkscape:connector-curvature="0"
   style="opacity:1;fill:none;stroke:#000000;stroke-width:5;stroke-linecap:butt;stroke-linejoin:round" />
<path
   d="m 686.66113,1033.3432 c 4.768,-1.361 5.942,4.174 6.966,7.763 2.851,9.989 3.302,20.334 6.133,30.256 1.678,5.879 2.957,12.223 5.543,17.671 1.305,2.751 9.03,5.577 6.867,6.542 -5.281,2.358 -9.301,-2.802 -10.698,-7.699 -3.449,-12.086 -7.158,-24.21 -10.589,-36.235 -0.68,-2.382 -5.283,-12.541 -4.157,-14.566 0.536,-0.964 2.984,5.201 3.037,5.384 1.006,3.528 2.271,7.068 2.803,10.702 0.327,2.233 1.154,6.672 1.154,6.672 0,0 0.541,-4.439 0.597,-6.671 0.093,-3.75 0.406,-9.104 -1.581,-12.551 -2.688,-4.664 -11.627,-4.946 -9.774,-6.213 2.614,-1.787 3.633,-0.091 5.151,2.281 0.671,1.048 1.956,4.448 1.915,3.204 -0.247,-7.479 -9.823,-7.119 -10.303,-4.561 -0.059,0.313 1.022,-1.333 1.289,-1.618 1.261,-1.348 2.861,-2.906 4.922,-2.905 2.889,10e-4 5.017,7.07 5.017,7.07 0,0 -2.115,-4.59 -4.159,-5.814 -1.382,-0.828 -4.756,0.857 -4.756,0.857 0,0 4.044,-2.851 5.318,-1.518 3.117,3.264 3.921,12.88 7.195,14.7"
   id="path3854"
   inkscape:connector-curvature="0"
   style="opacity:1;fill:none;stroke:#000000;stroke-width:5;stroke-linecap:butt;stroke-linejoin:round" />
<path
   d="m 745.41313,1035.7862 c -3.6,1.448 -7.38,8.442 -9.56,11.859 -7.9,12.365 -13.777,28.506 -11.893,43.321 1.132,8.906 2.473,18.835 13.733,19.149 10.4,0.289 16.41,-6.313 22.14,-13.415 1.51,-1.88 4.73,-5.137 5.46,-7.297 0.51,-1.549 1.04,-6.291 1.4,-4.695 1.49,6.769 -19.23,26.815 -27.65,20.478 -12.15,-9.139 -7.69,-22.662 -10.41,-34.992 -0.13,-0.624 -0.33,1.236 -0.57,1.832 -1.5,3.865 -1.59,3.13 -2.28,7.327 -0.859,5.22 0.02,10.039 1.14,15.103 0.07,0.325 2.92,6.994 3.35,6.329 1.29,-2.025 -2.76,-11.601 -2.9,-14.227 -0.02,-0.383 0.87,-6.632 0.99,-6.555 0.31,0.195 -0.82,4.903 -0.83,5.058 -0.38,4.452 0.08,11.461 2.22,15.594 1.16,2.248 4.58,4.224 6.91,4.812 1.54,0.387 6.25,-1.136 4.7,-0.793 -6.87,1.515 -12.41,-2.122 -13.9,-8.875 -0.18,-0.809 0.77,1.468 1.21,2.17 1.53,2.44 0.69,1.683 3.01,3.721 3.65,3.202 8.56,4.615 13.22,2.447 6.82,-3.179 -16.29,7.261 -4.29,0.458 4.05,-2.296 1.04,-0.895 5.04,-2.573"
   id="path3856"
   inkscape:connector-curvature="0"
   style="opacity:1;fill:none;stroke:#000000;stroke-width:5;stroke-linecap:butt;stroke-linejoin:round" />
<path
   d="m 776.91313,1038.9972 c 15.28,88.63 2.29,181.332 -27.28,265.928 -6.32,18.071 -32.825,42.799 -54.077,37.431 -11.553,-2.918 -21.935,-16.11 -27.523,-25.879 -3.165,-5.533 -6.795,-10.152 -7.916,-16.65"
   id="path3858"
   inkscape:connector-curvature="0"
   style="opacity:1;fill:none;stroke:#000000;stroke-width:5;stroke-linecap:butt;stroke-linejoin:round" />
<path
   d="m 835.27313,1018.4402 c -7.91,1.556 -10.97,9.798 -16.03,14.376 -4.54,4.095 -7.51,12.334 -8.6,18.165 -3.78,20.052 -12.06,48.104 12.68,58.382"
   id="path3860"
   inkscape:connector-curvature="0"
   style="opacity:1;fill:none;stroke:#000000;stroke-width:5;stroke-linecap:butt;stroke-linejoin:round" />
<g
   id="g3868"
   style="opacity:1"
   transform="translate(-274.65687,408.86421)">
<path
   d="m 799.146,446.773 h -24.375 v 9.781 h 22.375 v 8 h -22.375 v 11.844 h 25.5 v 8.281 h -34.906 v -46.062 h 33.781 z"
   id="path3862"
   inkscape:connector-curvature="0"
   style="opacity:1;fill:#000000" />
<path
   d="m 812.24,443.429 c 3.75,-3.791 8.521,-5.687 14.312,-5.687 7.75,0 13.417,2.541 17,7.625 1.98,2.854 3.042,5.718 3.188,8.593 h -9.625 c -0.625,-2.208 -1.427,-3.875 -2.406,-5 -1.75,-2 -4.344,-3 -7.782,-3 -3.5,0 -6.26,1.412 -8.281,4.235 -2.021,2.823 -3.031,6.818 -3.031,11.984 0,5.167 1.068,9.037 3.203,11.61 2.135,2.573 4.849,3.859 8.141,3.859 3.375,0 5.948,-1.104 7.718,-3.313 0.98,-1.187 1.792,-2.968 2.438,-5.343 h 9.531 c -0.833,5.021 -2.963,9.104 -6.39,12.25 -3.428,3.146 -7.818,4.718 -13.172,4.718 -6.625,0 -11.834,-2.125 -15.625,-6.375 -3.792,-4.27 -5.688,-10.125 -5.688,-17.562 0,-8.042 2.156,-14.24 6.469,-18.594 z"
   id="path3864"
   inkscape:connector-curvature="0"
   style="opacity:1;fill:#000000" />
<path
   d="m 886.802,461.585 c 0,-5.166 -1.119,-9.161 -3.359,-11.984 -2.24,-2.823 -5.266,-4.234 -9.078,-4.234 -3.813,0 -6.854,1.406 -9.125,4.218 -2.271,2.813 -3.406,6.813 -3.406,12 0,5.188 1.135,9.188 3.406,12 2.271,2.813 5.312,4.219 9.125,4.219 3.812,0 6.838,-1.406 9.078,-4.219 2.24,-2.812 3.359,-6.812 3.359,-12 z m 2.657,19 c -3.48,3.584 -8.511,5.375 -15.094,5.375 -6.583,0 -11.615,-1.791 -15.094,-5.375 -4.667,-4.395 -7,-10.729 -7,-19 0,-8.437 2.333,-14.77 7,-19 3.479,-3.583 8.511,-5.375 15.094,-5.375 6.583,0 11.614,1.792 15.094,5.375 4.645,4.23 6.968,10.563 6.968,19 0,8.271 -2.323,14.605 -6.968,19 z"
   id="path3866"
   inkscape:connector-curvature="0"
   style="opacity:1;fill:#000000" />
</g>
<path
   d="m 296.24713,792.02521 c 13.444,-40.332 113.07,-75.817 150.909,-86.065 128.691,-34.854 273.696,-34.61 381.987,53.054 90.23,73.047 157.46996,199.80498 142.64996,318.32099 -2.5,20.029 -28.28996,43.889 -28.28996,57.77"
   id="path3870"
   inkscape:connector-curvature="0"
   style="opacity:1;fill:none;stroke:#000000;stroke-width:15.10999966;stroke-linecap:butt;stroke-linejoin:round" />
<path
   d="m 250.26813,1428.6642 c 27.374,9.13 51.715,21.03 80.17,28.3 83.197,21.24 201.722,36.92 286.489,21.22 30.83,-5.71 64.379,-14.46 93.139,-27.12 18.107,-7.96 59.177,-36.54 76.637,-36.54"
   id="path3872"
   inkscape:connector-curvature="0"
   style="opacity:1;fill:none;stroke:#000000;stroke-width:15.10999966;stroke-linecap:butt;stroke-linejoin:round" />
</g>
</svg>